<svg id="search_1_" data-name="search (1)" xmlns="http://www.w3.org/2000/svg" width="37.185" height="37.185" viewBox="0 0 37.185 37.185">
  <g id="Group_992" data-name="Group 992" transform="translate(21.788 13.799)">
    <g id="Group_991" data-name="Group 991">
      <path id="Path_8188" data-name="Path 8188" d="M300.726,190a.726.726,0,1,0,.726.726A.727.727,0,0,0,300.726,190Z" transform="translate(-300 -190)" fill="#fff"/>
    </g>
  </g>
  <g id="Group_994" data-name="Group 994">
    <g id="Group_993" data-name="Group 993">
      <path id="Path_8189" data-name="Path 8189" d="M36.334,32.226,26.64,22.532a14.4,14.4,0,0,0,2.411-8.006A14.525,14.525,0,1,0,14.525,29.051a14.4,14.4,0,0,0,8.006-2.411l2.68,2.68h0l7.013,7.013a2.9,2.9,0,1,0,4.108-4.108ZM22.19,25.109h0a13.086,13.086,0,1,1,2.919-2.919A13.136,13.136,0,0,1,22.19,25.109Zm1.524.658a14.574,14.574,0,0,0,2.054-2.054l2.06,2.06a17.629,17.629,0,0,1-2.054,2.054Zm11.593,9.539a1.451,1.451,0,0,1-2.054,0L26.8,28.858A19.084,19.084,0,0,0,28.858,26.8l6.449,6.449a1.451,1.451,0,0,1,0,2.053Z" fill="#fff"/>
    </g>
  </g>
  <g id="Group_996" data-name="Group 996" transform="translate(2.905 2.905)">
    <g id="Group_995" data-name="Group 995">
      <path id="Path_8190" data-name="Path 8190" d="M51.62,40a11.62,11.62,0,1,0,11.62,11.62A11.633,11.633,0,0,0,51.62,40Zm0,21.788A10.168,10.168,0,1,1,61.788,51.62,10.179,10.179,0,0,1,51.62,61.788Z" transform="translate(-40 -40)" fill="#fff"/>
    </g>
  </g>
  <g id="Group_998" data-name="Group 998" transform="translate(13.799 5.81)">
    <g id="Group_997" data-name="Group 997">
      <path id="Path_8191" data-name="Path 8191" d="M198.865,85.6a8.729,8.729,0,0,0-8.139-5.6.726.726,0,0,0,0,1.453,7.312,7.312,0,0,1,6.783,4.666.726.726,0,1,0,1.356-.521Z" transform="translate(-190 -80)" fill="#fff"/>
    </g>
  </g>
</svg>
